<svg version="1.1" id="Layer_1" xmlns="http://www.w3.org/2000/svg" xmlns:xlink="http://www.w3.org/1999/xlink" x="0px" y="0px"
	 width="100%" viewBox="0 0 624 544" enable-background="new 0 0 624 544" xml:space="preserve">
<path fill="#000000" opacity="1.000000" stroke="none" 
	d="
M275.284119,475.002075 
	C258.717163,473.727722 242.542328,473.122711 226.544205,471.111786 
	C200.803162,467.876221 174.916428,464.785278 150.780090,454.269287 
	C112.032326,437.387177 88.447731,408.708771 82.674767,366.235870 
	C79.576752,343.443146 81.605721,320.734131 83.448227,298.010925 
	C84.598351,283.826721 87.226532,269.975861 92.915474,256.842041 
	C100.703087,238.863113 114.033012,226.404572 131.552536,218.095551 
	C149.729218,209.474884 169.129425,205.824356 188.934494,203.729507 
	C199.377197,202.624954 209.836334,201.805710 220.341431,201.799759 
	C222.701035,201.798416 224.539093,200.951233 226.085281,199.289566 
	C238.039749,186.442398 253.657089,181.963943 270.327118,179.645676 
	C278.475952,178.512421 286.611847,178.578827 294.762482,178.949951 
	C298.807739,179.134125 300.491760,178.055618 298.982086,173.812927 
	C297.921326,170.831940 298.687653,167.900131 299.829498,165.051926 
	C301.068268,161.961868 301.774811,158.544540 303.536407,155.797714 
	C311.064697,144.058899 307.369202,132.901031 302.017303,121.925941 
	C298.566925,114.850281 298.382904,108.317230 301.490936,100.883934 
	C304.781555,93.014114 308.991058,85.326759 309.071075,76.254608 
	C309.108215,72.040253 312.594666,69.532654 316.884247,69.162971 
	C320.836853,68.822342 323.593079,70.893379 325.109314,74.446419 
	C326.771423,78.341232 325.933258,82.350441 322.360687,84.080429 
	C316.922241,86.713928 316.171112,91.726952 313.892456,96.264488 
	C308.594971,106.813423 308.999390,116.883369 314.630768,127.040276 
	C315.753479,129.065277 316.313110,131.395279 317.346680,133.478333 
	C319.831970,138.487488 319.575500,143.276077 317.215698,148.343979 
	C314.619324,153.920059 312.711639,159.812561 310.272888,165.467575 
	C308.173340,170.336060 309.614441,174.651337 312.033661,178.752609 
	C314.570679,183.053589 319.475403,182.754501 321.717560,178.319687 
	C324.270325,173.270416 326.366150,168.013000 329.155090,163.055435 
	C331.070618,159.650421 333.569672,157.376572 337.029266,155.795807 
	C344.149750,152.542328 351.149628,149.019531 358.318085,145.879074 
	C360.968719,144.717865 362.574097,143.071426 363.746277,140.477402 
	C366.899078,133.500198 370.301514,126.635971 373.590057,119.719849 
	C375.679840,115.324806 378.923279,112.210861 383.391693,110.189552 
	C389.916107,107.238182 396.334106,104.052048 402.807587,100.987274 
	C405.524200,99.701126 408.008484,98.238220 410.134949,95.950462 
	C413.397034,92.440926 417.919281,92.174530 421.390381,94.999161 
	C424.761230,97.742195 425.679474,101.282066 423.804047,105.276787 
	C421.946930,109.232498 417.733704,110.984154 413.333862,109.414902 
	C410.911469,108.550911 408.917206,108.702744 406.704010,109.907196 
	C403.929047,111.417366 401.111542,113.021965 398.112854,113.917809 
	C386.676361,117.334381 380.386169,125.465584 376.829285,136.293350 
	C376.518890,137.238159 375.926208,138.094299 375.649200,139.045380 
	C372.738495,149.039352 366.086609,155.059036 356.160156,157.825897 
	C353.948364,158.442413 352.035950,160.161194 349.820648,160.732010 
	C339.609497,163.363190 335.878571,171.633545 332.282745,180.180237 
	C331.142303,182.890869 331.353851,184.573318 334.423737,185.443085 
	C346.358154,188.824356 357.233673,193.861984 364.468048,204.644806 
	C365.665833,206.430099 367.789764,205.881546 369.565857,205.983597 
	C385.516998,206.900101 401.515747,207.465057 417.207581,210.792206 
	C440.807007,215.795975 461.694794,225.997528 477.375763,244.779800 
	C489.184967,258.924530 493.967163,276.258423 496.129913,294.112000 
	C500.016571,326.196625 499.594513,358.281403 493.199005,390.073334 
	C488.972992,411.080688 481.640381,430.825378 466.742371,446.872406 
	C449.147858,465.823883 426.880280,474.897430 401.421234,476.049042 
	C377.298340,477.140228 353.137848,478.182800 328.996216,476.213715 
	C319.395905,475.430634 309.920105,472.914734 300.187408,474.023407 
	C292.062958,474.948822 283.933868,475.523590 275.284119,475.002075 
M414.518585,368.988312 
	C419.089600,349.414398 418.154785,329.630890 416.505737,309.867279 
	C415.645844,299.561859 413.742493,289.424500 408.914368,280.058044 
	C400.109039,262.975891 384.917816,254.159485 367.531006,248.533539 
	C349.880341,242.822220 331.630432,240.020248 313.116516,239.080032 
	C276.989197,237.245331 240.906754,236.986481 204.978455,242.248779 
	C187.615601,244.791855 170.588043,248.428192 154.717682,256.288269 
	C137.081650,265.022797 125.538223,278.625916 121.450485,298.087006 
	C117.577919,316.523682 117.933800,335.176147 119.614731,353.766541 
	C120.898796,367.967712 124.671959,381.595459 132.431747,393.825043 
	C144.072754,412.171509 161.412048,422.845062 181.406830,429.733429 
	C203.984283,437.511536 227.458023,440.125275 251.158569,440.727417 
	C286.069824,441.614410 320.774780,440.155426 354.259674,428.727264 
	C383.660919,418.692780 405.641541,400.996552 414.518585,368.988312 
M429.695312,304.725189 
	C438.619720,315.434753 452.220367,317.475677 462.450897,309.640442 
	C472.484650,301.955963 474.874847,287.577087 467.785004,277.551666 
	C460.635590,267.442047 446.122131,264.583282 435.850830,271.261505 
	C424.802673,278.444824 422.007019,292.403687 429.695312,304.725189 
z"/>
<path fill="#000000" opacity="1.000000" stroke="none" 
	d="
M323.054626,325.822540 
	C322.557373,334.452606 323.259094,342.590515 323.970032,350.731934 
	C324.133667,352.605927 325.189972,355.167847 322.582397,355.914825 
	C319.831604,356.702820 318.192505,354.551544 317.525208,352.197845 
	C316.622131,349.012756 316.222137,345.688568 315.467712,342.456421 
	C315.048157,340.658691 314.382477,338.566284 312.083496,338.801117 
	C309.417938,339.073395 309.456390,341.423798 309.538025,343.443665 
	C309.598175,344.933136 310.030975,346.409485 310.068298,347.897461 
	C310.117249,349.847900 310.492340,352.314819 307.889099,352.816193 
	C305.357574,353.303772 304.013245,351.330750 303.124817,349.237427 
	C301.585388,345.610016 301.756317,341.716980 301.666443,337.911774 
	C301.544922,332.766663 301.581665,327.605133 301.864777,322.467987 
	C302.029907,319.471069 303.252655,316.558624 306.952240,317.036987 
	C310.718719,317.524017 310.927673,320.427216 310.228699,323.536530 
	C309.756348,325.637787 309.006836,327.725983 309.422333,329.930878 
	C309.731293,331.570312 310.642975,332.749298 312.445038,332.638641 
	C314.073700,332.538635 314.656860,331.271545 314.734039,329.841553 
	C314.886383,327.017456 314.832336,324.179291 315.062836,321.363251 
	C315.272644,318.799591 315.801544,316.046204 319.101196,316.038605 
	C322.454315,316.030884 322.787537,318.869476 323.077423,321.387054 
	C323.228607,322.700073 323.088776,324.046600 323.054626,325.822540 
z"/>
<path fill="#000000" opacity="1.000000" stroke="none" 
	d="
M223.270386,319.319855 
	C227.231720,313.963043 234.319717,313.591248 240.614090,318.016510 
	C247.302399,322.718750 247.824127,326.589508 242.297836,332.476318 
	C240.708817,334.169037 240.309174,335.756500 241.013168,337.864594 
	C242.274689,341.642151 243.407623,345.462708 244.676468,349.237671 
	C245.296204,351.081482 246.799942,353.037140 244.058380,354.327179 
	C241.763855,355.406799 240.256790,353.942841 239.049728,352.234985 
	C237.396210,349.895386 236.514099,347.201630 235.733002,344.473816 
	C235.321075,343.035339 234.981659,341.560883 234.404114,340.189117 
	C233.750900,338.637634 232.863129,336.999664 230.788162,337.455139 
	C228.843277,337.882050 229.014313,339.695892 229.083344,341.135803 
	C229.186371,343.284912 229.456161,345.436920 229.818039,347.559875 
	C230.233047,349.994324 230.614792,352.498749 227.399399,353.072113 
	C224.346558,353.616455 223.421402,351.216217 222.858704,348.858124 
	C221.366486,342.605011 221.407669,336.298645 222.871872,330.072296 
	C223.689392,326.595886 223.955338,323.197968 223.270386,319.319855 
M230.926758,323.414276 
	C230.385910,325.579041 229.383514,327.694946 230.019562,330.052917 
	C233.551819,331.426483 236.285233,330.116608 238.784485,328.053314 
	C239.853622,327.170654 239.830856,325.940613 238.849045,325.019287 
	C236.761826,323.060669 234.532455,321.330872 230.926758,323.414276 
z"/>
<path fill="#000000" opacity="1.000000" stroke="none" 
	d="
M194.507141,324.478180 
	C192.374207,333.442841 190.297729,341.993988 188.288925,350.560944 
	C187.785416,352.708313 186.756607,354.216827 184.472687,354.601044 
	C182.232132,354.978027 181.245926,353.552704 180.272095,351.855957 
	C176.613113,345.480682 173.733963,338.776855 171.689194,331.727509 
	C171.235062,330.161896 170.987579,328.448029 171.092285,326.831360 
	C171.218826,324.877625 172.401505,323.358704 174.418640,322.948975 
	C176.839355,322.457336 177.480682,324.326141 178.156799,326.083466 
	C179.683777,330.052338 179.723923,334.556152 182.296005,338.234802 
	C185.041031,337.529419 184.814682,335.139709 185.280075,333.419769 
	C186.450089,329.095734 187.228714,324.667480 188.312851,320.318024 
	C188.968781,317.686493 189.923691,314.674408 193.396149,315.416260 
	C197.139877,316.216095 195.213593,319.379272 195.149200,321.647766 
	C195.126144,322.459991 194.784729,323.263184 194.507141,324.478180 
z"/>
<path fill="#000000" opacity="1.000000" stroke="none" 
	d="
M352.301666,337.318451 
	C353.942932,332.359558 351.670380,327.737823 351.554718,322.962738 
	C351.507019,320.991974 350.986053,318.605774 353.627533,318.028809 
	C356.579315,317.384003 357.170898,319.915588 357.749298,321.972107 
	C359.530518,328.305298 359.440033,334.808441 359.014557,341.276489 
	C358.806641,344.437408 358.055054,347.954681 354.398804,348.800629 
	C351.118805,349.559540 350.165405,346.237671 348.626770,344.190887 
	C348.040039,343.410400 347.560120,342.549622 346.516327,340.922119 
	C346.217651,343.954681 346.104401,346.169495 345.753998,348.346100 
	C345.437622,350.311279 344.433838,351.873566 342.124603,351.598694 
	C339.940643,351.338715 338.935822,349.757507 339.041443,347.728333 
	C339.386414,341.099579 339.797333,334.471527 340.365356,327.858887 
	C340.512878,326.141327 340.671204,323.919830 343.036560,323.595245 
	C345.489777,323.258606 346.525024,325.224426 347.383423,327.026276 
	C349.012421,330.445526 350.492249,333.935852 352.301666,337.318451 
z"/>
<path fill="#000000" opacity="1.000000" stroke="none" 
	d="
M385.226685,338.897614 
	C386.481934,346.865143 382.614868,352.771545 375.618256,354.406006 
	C370.682373,355.559082 367.104370,353.552307 364.643463,349.513397 
	C360.068359,342.004456 362.791595,328.871246 369.857880,323.674957 
	C373.590485,320.930145 377.659149,320.020935 382.091309,321.769562 
	C383.622437,322.373688 385.506226,322.965607 385.261536,325.058929 
	C385.008545,327.223541 383.057068,327.192963 381.390442,327.322266 
	C381.225220,327.335114 381.057983,327.321777 380.891663,327.320709 
	C377.803680,327.301147 374.241333,326.252350 372.487396,329.934906 
	C370.258942,334.613800 368.242096,339.479492 370.423065,344.769531 
	C371.329163,346.967255 372.847534,349.320526 375.601959,348.223541 
	C378.472260,347.080383 378.028870,344.736633 376.455780,342.459991 
	C375.043915,340.416748 376.160065,339.004425 377.971985,338.018280 
	C380.400177,336.696655 382.761566,336.907379 385.226685,338.897614 
z"/>
<path fill="#000000" opacity="1.000000" stroke="none" 
	d="
M211.516754,332.055023 
	C213.766083,332.550751 215.773239,333.203278 215.394943,335.518677 
	C215.039734,337.692932 212.817322,337.824646 211.027466,338.148102 
	C209.424255,338.437805 207.598068,338.052734 206.410034,339.568817 
	C204.801208,341.621887 204.807129,344.094269 205.763321,346.203949 
	C206.944748,348.810608 209.192734,347.287262 210.996704,346.738342 
	C212.424088,346.303955 213.755264,345.559631 215.175232,345.093109 
	C216.627335,344.616058 218.278656,344.210052 218.974350,346.144104 
	C219.573608,347.809998 218.633636,349.182434 217.211761,349.867859 
	C213.157471,351.822388 208.980804,353.604401 204.442581,353.939178 
	C200.990189,354.193878 199.125717,352.089111 199.013992,348.785004 
	C198.745941,340.857391 198.449265,332.918610 198.611771,324.993530 
	C198.696259,320.873871 202.035080,319.151550 205.638672,318.299713 
	C209.403839,317.409698 213.026596,317.857666 215.816956,320.753601 
	C217.162598,322.150146 216.424652,323.619293 214.662079,324.204926 
	C213.755219,324.506226 212.685516,324.432220 211.701019,324.362885 
	C208.991165,324.171997 206.159775,323.561127 205.979355,327.745911 
	C205.815933,331.536713 208.100845,332.168976 211.516754,332.055023 
z"/>
<path fill="#000000" opacity="1.000000" stroke="none" 
	d="
M253.725647,358.074463 
	C251.060730,355.002869 252.622589,352.017761 253.684006,349.416351 
	C256.700836,342.022430 255.726547,335.165405 251.994644,328.379028 
	C250.472778,325.611542 249.315308,322.649963 248.836060,319.493134 
	C248.565475,317.710785 248.982376,316.113647 250.847198,315.395355 
	C252.967880,314.578461 254.524734,315.603455 255.297363,317.451508 
	C256.685486,320.771698 257.808197,324.202850 259.462524,328.742004 
	C261.055176,324.800446 262.056488,321.886414 263.398682,319.138916 
	C264.469330,316.947296 266.255981,315.045319 268.937103,316.344604 
	C271.447540,317.561188 270.185516,319.767426 269.460907,321.583771 
	C268.045471,325.131592 266.548767,328.647034 265.077942,332.172668 
	C264.119385,334.470428 262.971008,336.701324 264.218323,339.318268 
	C264.532104,339.976715 264.585297,341.342743 264.180634,341.670593 
	C259.829468,345.195923 260.155182,350.525543 258.754395,355.183990 
	C258.056641,357.504364 256.805420,359.074615 253.725647,358.074463 
z"/>
<path fill="#000000" opacity="1.000000" stroke="none" 
	d="
M163.366211,324.221985 
	C155.671036,324.092987 154.687149,324.714081 155.043427,328.992310 
	C155.227905,331.207306 156.046219,332.359558 158.448746,332.220642 
	C159.752090,332.145233 161.104752,332.367493 162.387955,332.661560 
	C163.581863,332.935211 164.515457,333.719971 164.588120,335.060791 
	C164.666382,336.504517 163.596725,337.112793 162.433167,337.411926 
	C160.826523,337.824982 159.133942,337.934814 157.557571,338.428253 
	C153.925995,339.564972 153.995148,342.549713 154.651077,345.386383 
	C155.368225,348.487762 157.711304,347.789062 159.857895,347.012695 
	C161.580093,346.389832 163.269043,345.670868 165.005737,345.093811 
	C166.154663,344.712067 167.422363,344.626984 168.116623,345.862030 
	C168.886810,347.232208 168.453857,348.628296 167.162582,349.332916 
	C162.762161,351.734314 158.185394,353.827820 153.054657,353.822205 
	C150.013824,353.818878 148.747177,351.832245 148.650116,348.878510 
	C148.402328,341.337646 148.011459,333.801300 147.791260,326.259827 
	C147.677933,322.378448 150.075867,320.123016 153.396164,318.806183 
	C157.412216,317.213379 161.336182,317.659851 164.708542,320.376465 
	C166.566422,321.873108 165.671432,323.270691 163.366211,324.221985 
z"/>
<path fill="#000000" opacity="1.000000" stroke="none" 
	d="
M273.044067,319.132812 
	C279.897217,314.707336 287.228821,314.711639 294.603180,314.988556 
	C296.308990,315.052612 298.208282,315.207947 298.340546,317.411896 
	C298.471283,319.591309 296.792053,321.145477 294.956177,321.043335 
	C289.019806,320.713104 288.719269,324.861725 288.351959,328.873169 
	C287.820984,334.672119 287.543274,340.494232 287.152588,346.306122 
	C287.052216,347.798950 287.108704,349.330292 286.781708,350.773376 
	C286.288971,352.948242 284.746704,354.398376 282.515717,354.267914 
	C280.088379,354.125946 279.829224,351.918610 279.916534,350.118622 
	C280.255127,343.139374 280.740540,336.166260 281.260284,329.197479 
	C281.407318,327.225891 281.844818,325.277283 281.251617,323.393860 
	C278.269073,321.927368 275.286102,325.969208 272.641571,323.036743 
	C271.594391,321.875580 271.847565,320.584595 273.044067,319.132812 
z"/>
<path fill="#000000" opacity="1.000000" stroke="none" 
	d="
M335.861481,323.850098 
	C334.000488,331.646820 335.099091,339.100159 335.104553,346.528900 
	C335.106232,348.797760 336.049316,352.145111 332.139313,352.103455 
	C328.875397,352.068665 327.855927,349.447784 327.669189,346.556641 
	C327.167358,338.789307 326.832947,331.015961 328.011536,323.280640 
	C328.382660,320.844940 329.456177,318.696564 332.387146,318.777557 
	C335.307373,318.858246 336.503326,320.546173 335.861481,323.850098 
z"/>
<path fill="#000000" opacity="1.000000" stroke="none" 
	d="
M434.496918,276.479858 
	C443.369537,269.640839 451.792633,268.996033 459.666992,274.333740 
	C466.510559,278.972656 470.067871,288.885620 467.744263,296.841919 
	C465.551819,304.348999 458.244354,310.324615 450.225616,311.167603 
	C442.541199,311.975494 434.248688,307.226593 430.609344,299.933807 
	C427.018280,292.737793 428.482300,283.327362 434.496918,276.479858 
M448.027008,285.783173 
	C448.021332,288.280853 447.995728,290.778687 448.016052,293.276154 
	C448.033478,295.419800 448.546326,297.314514 451.006653,297.816437 
	C453.372070,298.298981 455.419006,297.584412 456.539734,295.419586 
	C458.653961,291.335693 458.669525,287.067932 456.735718,282.928925 
	C455.726013,280.767883 453.723907,279.898560 451.324249,280.174438 
	C448.474335,280.502075 448.028473,282.550842 448.027008,285.783173 
z"/>
</svg>